<?xml version="1.0" encoding="UTF-8"?>
<svg width="36px" height="36px" viewBox="0 0 36 36" version="1.1" xmlns="http://www.w3.org/2000/svg" xmlns:xlink="http://www.w3.org/1999/xlink">
    <!-- Generator: Sketch 53 (72520) - https://sketchapp.com -->
    <title>icon-bookings</title>
    <desc>Created with Sketch.</desc>
    <g id="Page-1" stroke="none" stroke-width="1" fill="none" fill-rule="evenodd" opacity="0.6">
        <g id="01" transform="translate(-100.000000, -2447.000000)">
            <g id="icon-bookings" transform="translate(100.000000, 2447.000000)">
                <g id="calendar-(5)" transform="translate(-0.000000, 0.000000)" fill="#000000" fill-rule="nonzero">
                    <path d="M21.4495,0.25 L21.4495,1.42456055 L27.7307129,1.42456055 L27.7307129,5.75 L1.25012207,5.75 L1.25012207,1.42456055 L22.765625,1.42456055 L22.765625,0.25 L0,0.25 L0,6.75 L0,26.75 L29,26.75 L29,6.75 L29,0.25 L21.4495,0.25 Z M27.7964707,25.6067757 L1.20352929,25.6067757 L1.20352929,6.89322431 L27.7964707,6.89322431 L27.7964707,25.6067757 Z" id="Shape"></path>
                    <path d="M4.5,10.75 L15.5,10.75 C15.776,10.75 16,10.5265 16,10.25 C16,9.9735 15.776,9.75 15.5,9.75 L4.5,9.75 C4.224,9.75 4,9.9735 4,10.25 C4,10.5265 4.224,10.75 4.5,10.75 Z" id="Path"></path>
                    <path d="M24.5,17.75 L17,17.75 C16.724,17.75 16.5,17.9735 16.5,18.25 C16.5,18.5265 16.724,18.75 17,18.75 L24.5,18.75 C24.776,18.75 25,18.5265 25,18.25 C25,17.9735 24.776,17.75 24.5,17.75 Z" id="Path"></path>
                    <path d="M4.5,14.75 L9.5,14.75 C9.776,14.75 10,14.5265 10,14.25 C10,13.9735 9.776,13.75 9.5,13.75 L4.5,13.75 C4.224,13.75 4,13.9735 4,14.25 C4,14.5265 4.224,14.75 4.5,14.75 Z" id="Path"></path>
                    <path d="M24.5,21.75 L19.5,21.75 C19.224,21.75 19,21.9735 19,22.25 C19,22.5265 19.224,22.75 19.5,22.75 L24.5,22.75 C24.776,22.75 25,22.5265 25,22.25 C25,21.9735 24.776,21.75 24.5,21.75 Z" id="Path"></path>
                    <path d="M14,14.25 C14,14.5265 14.224,14.75 14.5,14.75 L22,14.75 C22.276,14.75 22.5,14.5265 22.5,14.25 C22.5,13.9735 22.276,13.75 22,13.75 L14.5,13.75 C14.224,13.75 14,13.9735 14,14.25 Z" id="Path"></path>
                    <path d="M12.355,14.605 C12.445,14.51 12.5,14.38 12.5,14.25 C12.5,14.1195 12.445,13.9895 12.355,13.895 C12.17,13.71 11.83,13.71 11.645,13.895 C11.555,13.9895 11.5,14.1195 11.5,14.25 C11.5,14.38 11.555,14.51 11.645,14.605 C11.74,14.6995 11.87,14.75 12,14.75 C12.13,14.75 12.26,14.6995 12.355,14.605 Z" id="Path"></path>
                    <path d="M6.5,18.25 C6.5,18.5265 6.724,18.75 7,18.75 L14.5,18.75 C14.776,18.75 15,18.5265 15,18.25 C15,17.9735 14.776,17.75 14.5,17.75 L7,17.75 C6.724,17.75 6.5,17.9735 6.5,18.25 Z" id="Path"></path>
                    <path d="M4.5,18.75 C4.63,18.75 4.76,18.695 4.855,18.605 C4.945,18.51 5,18.38 5,18.25 C5,18.1195 4.945,17.9895 4.855,17.9 C4.67,17.71 4.33,17.71 4.145,17.895 C4.055,17.9895 4,18.1195 4,18.25 C4,18.38 4.055,18.51 4.145,18.605 C4.24,18.695 4.365,18.75 4.5,18.75 Z" id="Path"></path>
                    <path d="M24.5,14.75 C24.63,14.75 24.76,14.6995 24.855,14.605 C24.95,14.51 25,14.38 25,14.25 C25,14.1195 24.95,13.9895 24.855,13.895 C24.665,13.71 24.33,13.71 24.145,13.895 C24.055,13.9895 24,14.1195 24,14.25 C24,14.38 24.055,14.51 24.145,14.605 C24.24,14.6995 24.37,14.75 24.5,14.75 Z" id="Path"></path>
                    <path d="M17,21.75 L4.5,21.75 C4.224,21.75 4,21.9735 4,22.25 C4,22.5265 4.224,22.75 4.5,22.75 L17,22.75 C17.276,22.75 17.5,22.5265 17.5,22.25 C17.5,21.9735 17.276,21.75 17,21.75 Z" id="Path"></path>
                </g>
                <circle id="Oval" fill="#FFFFFF" cx="25" cy="25" r="10.2902832"></circle>
                <g id="Group-2" transform="translate(17.500000, 17.500000)">
                    <g id="clock-circular-outline" fill="#000000" fill-rule="nonzero">
                        <path d="M7.48969099,0 C3.35987723,0 0,3.35987723 0,7.48969099 C0,11.6195047 3.35987723,14.979382 7.48969099,14.979382 C11.6195047,14.979382 14.979382,11.6195047 14.979382,7.48969099 C14.979382,3.35987723 11.6195047,0 7.48969099,0 Z M7.48969099,13.9229565 C3.94242038,13.9229565 1.05625725,11.0371298 1.05625725,7.48969099 C1.05625725,3.94225216 3.94242038,1.05642547 7.48969099,1.05642547 C11.0369616,1.05642547 13.9231247,3.94225216 13.9231247,7.48969099 C13.9231247,11.0371298 11.0369616,13.9229565 7.48969099,13.9229565 Z" id="Shape"></path>
                    </g>
                    <polyline id="Line-4" stroke="#000000" stroke-linecap="round" stroke-linejoin="round" points="7.30855245 3.08236413 7.30855245 7.84137098 11.459913 7.84137098"></polyline>
                </g>
            </g>
        </g>
    </g>
</svg>