<svg width="52" height="52" xmlns="http://www.w3.org/2000/svg"><path d="M33.473 12.487c1.55-2.64 1.386-6.193-.302-7.888a5.107 5.107 0 0 0-3.657-1.523A5.107 5.107 0 0 0 25.856 4.6c-1.687 1.695-1.851 5.248-.302 7.888.924 1.574 2.235 3.548 3.93 5.912 2.014-2.843 3.352-4.826 3.99-5.912zm1.863-10.064c2.879 2.891 2.879 8.043.775 11.627-.935 1.592-3.134 4.783-6.597 9.571-2.996-3.992-5.195-7.182-6.598-9.571-2.103-3.584-2.103-8.736.775-11.627A8.162 8.162 0 0 1 29.514 0c2.2 0 4.267.86 5.822 2.423zm-19.04 14.274c-2.608-2.838-6.95-3.95-9.691-2.5a6.589 6.589 0 0 0-3.255 3.935 6.588 6.588 0 0 0 .498 5.082c1.462 2.734 5.683 4.24 9.432 3.347 2.273-.542 5.218-1.43 8.822-2.661-2.776-3.611-4.724-6.025-5.806-7.203zM5.157 11.491c4.261-2.254 10.082-.474 13.405 3.14 1.476 1.607 4.321 5.194 8.535 10.761-5.545 2.006-9.91 3.389-13.093 4.148-4.776 1.139-10.597-.64-12.87-4.892a9.643 9.643 0 0 1-.726-7.415 9.643 9.643 0 0 1 4.75-5.742zm37.255 13.66c2.495.503 5.243-.587 6.094-2.322a4.145 4.145 0 0 0 .202-3.211 4.145 4.145 0 0 0-2.136-2.407c-1.739-.843-4.576-.01-6.231 1.923-.97 1.132-2.135 2.646-3.488 4.536 2.677.78 4.543 1.275 5.56 1.48zm8.856-.983c-1.585 3.231-5.882 4.71-9.475 3.985-1.596-.322-4.889-1.24-9.877-2.753 2.469-3.645 4.498-6.396 6.088-8.251 2.385-2.784 6.682-4.264 9.92-2.693a7.2 7.2 0 0 1 3.693 4.16 7.2 7.2 0 0 1-.35 5.552zM34.144 38.756c.217 2.706 2.143 5.203 4.193 5.57a4.46 4.46 0 0 0 3.381-.744 4.46 4.46 0 0 0 1.855-2.923c.357-2.052-1.33-4.716-3.799-5.845-1.455-.666-3.373-1.422-5.744-2.262-.013 3.016.026 5.098.114 6.204zm3.668 8.593c-3.698-.66-6.419-4.546-6.725-8.36-.136-1.695-.162-5.262-.079-10.703 4.368 1.429 7.711 2.674 10.03 3.735 3.48 1.592 6.2 5.478 5.557 9.178a7.515 7.515 0 0 1-3.112 4.903 7.515 7.515 0 0 1-5.671 1.247zM16.673 35.53c-3.393 1.482-5.76 5.078-5.303 8.007a6.305 6.305 0 0 0 2.546 4.171 6.305 6.305 0 0 0 4.754 1.133c2.928-.47 5.616-3.833 5.976-7.518.218-2.228.334-5.166.345-8.803-4.123 1.386-6.912 2.396-8.318 3.01zM8.34 44.023c-.721-4.622 2.752-9.402 7.119-11.308 1.94-.848 6.131-2.325 12.572-4.433.089 5.723-.022 10.165-.331 13.327-.464 4.742-3.937 9.522-8.556 10.264a9.36 9.36 0 0 1-7.035-1.677 9.36 9.36 0 0 1-3.769-6.173z" fill="#202020" fill-rule="nonzero"/></svg>