<?xml version="1.0" encoding="UTF-8"?>
<svg width="37px" height="35px" viewBox="0 0 37 35" version="1.1" xmlns="http://www.w3.org/2000/svg" xmlns:xlink="http://www.w3.org/1999/xlink">
    <!-- Generator: Sketch 53 (72520) - https://sketchapp.com -->
    <title>icon-marketing</title>
    <desc>Created with Sketch.</desc>
    <g id="Page-1" stroke="none" stroke-width="1" fill="none" fill-rule="evenodd">
        <g id="01" transform="translate(-105.000000, -3893.000000)" fill="#676767" fill-rule="nonzero">
            <g id="icon-marketing" transform="translate(105.000000, 3893.000000)">
                <path d="M10.5608892,33.519491 C11.3451192,34.8793492 13.1092139,35.3828125 14.5043089,34.5763128 C15.8847455,33.7785519 16.3591736,32.014739 15.560567,30.6331749 L13.3956186,26.8828528 L11.9544678,24.3799438 L13.1961823,23.6656647 L14.5962065,23.1891914 C14.7081186,23.1674855 15.4438627,23.0231556 28.4186131,20.4779317 C30.0225918,20.3908264 30.9835696,18.6365979 30.1734053,17.2341736 L27.7750483,13.0801788 L24.4424936,7.30754673 L21.7800016,2.69575549 C21.3943702,2.0276659 20.7034472,1.62314759 19.9321843,1.61356314 C19.9228818,1.61328127 19.9138612,1.61328127 19.9045586,1.61328127 C19.1592301,1.61328127 18.4826837,1.98425421 18.0818299,2.61146907 L8.65471975,14.6207313 L2.52605507,18.1590689 C0.115576639,19.5502174 -0.71939433,22.6425983 0.677110144,25.0595602 C1.95296392,27.2696118 4.64279965,28.1389739 6.92670747,27.2245087 L10.5608892,33.519491 Z M14.3109295,31.3551064 C14.709528,32.0446198 14.4735825,32.9269491 13.7820957,33.3263934 C13.0883538,33.727529 12.2048969,33.4811534 11.8108086,32.7981234 L8.20256118,26.5476804 L10.7024002,25.1043814 C14.8783827,32.3383538 14.2438386,31.2392478 14.3109295,31.3551064 Z M19.2889014,3.40274647 C19.4825628,3.08589725 19.7898277,3.05319751 19.9144249,3.05658024 C20.0376127,3.05798969 20.3445957,3.09632732 20.5298003,3.41712303 L28.9234858,17.9558231 C29.1969234,18.4291237 28.8645699,19.0242027 28.3162854,19.0377336 C28.2179043,19.0399887 28.1725193,19.0577481 27.9205058,19.1048244 L19.0416801,3.72607922 C19.2280122,3.48646907 19.2519733,3.46335377 19.2889014,3.40274647 L19.2889014,3.40274647 Z M18.0812661,4.94950068 L26.423365,19.3985583 L13.8334004,21.8679527 L10.0052754,15.2375161 L18.0812661,4.94950068 Z M1.92702964,24.3379107 C1.61018041,23.7896263 1.44273522,23.1672036 1.44273522,22.5374517 C1.44273522,21.2503222 2.13450387,20.0517075 3.24770456,19.4089884 L8.8723421,16.1615657 L12.4805895,22.4111631 L6.85595198,25.6588676 C5.13273196,26.6533908 2.92183471,26.0608489 1.92702964,24.3379107 Z" id="Shape"></path>
                <path d="M35.8758457,3.15693462 L31.854623,5.39461177 C31.5064836,5.58855507 31.3810406,6.02802835 31.5749839,6.37616787 C31.7683634,6.72402543 32.2075548,6.85003222 32.5565399,6.65580704 L36.5774807,4.41812981 C36.9259021,4.22418652 37.0510631,3.78471324 36.8571198,3.43657379 C36.6634584,3.0881524 36.2239852,2.96299132 35.8758457,3.15693462 L35.8758457,3.15693462 Z" id="Path"></path>
                <path d="M35.4541318,10.6310808 L32.6659149,9.88406091 C32.2808473,9.78088755 31.8850677,10.009222 31.7818943,10.3942896 C31.678721,10.7793573 31.9073373,11.174855 32.292405,11.2780284 L35.0809037,12.0250483 C35.4682265,12.1290674 35.8620328,11.8970683 35.9646424,11.5148196 C36.0678157,11.1297519 35.8391994,10.7339723 35.4541318,10.6310808 Z" id="Path"></path>
                <path d="M28.4473663,0.535035402 L27.6995007,3.32353419 C27.5963273,3.7086018 27.8246617,4.10409957 28.2097294,4.2075548 C28.5945151,4.31044622 28.9902948,4.0826756 29.09375,3.69732603 L29.8413338,0.90882732 C29.9445071,0.523759629 29.7161727,0.127980062 29.331105,0.024806701 C28.9463192,-0.0783666598 28.5505396,0.149967784 28.4473663,0.535035402 L28.4473663,0.535035402 Z" id="Path"></path>
            </g>
        </g>
    </g>
</svg>