<?xml version="1.0" encoding="UTF-8"?>
<svg width="21px" height="36px" viewBox="0 0 21 36" version="1.1" xmlns="http://www.w3.org/2000/svg" xmlns:xlink="http://www.w3.org/1999/xlink">
    <!-- Generator: Sketch 53 (72520) - https://sketchapp.com -->
    <title>icon-mobile</title>
    <desc>Created with Sketch.</desc>
    <g id="Page-1" stroke="none" stroke-width="1" fill="none" fill-rule="evenodd">
        <g id="01" transform="translate(-525.000000, -3891.000000)" fill-rule="nonzero">
            <g id="icon-mobile" transform="translate(525.000000, 3891.000000)">
                <g id="smartphone">
                    <path d="M18.2055214,0.658591381 L3.39624738,0.658591381 C1.96881914,0.658591381 0.806535116,1.82087541 0.806535116,3.24830365 L0.806535116,33.3424651 C0.806535116,34.7704812 1.96881914,35.9327652 3.39624738,35.9327652 L18.2049335,35.9327652 C19.6329496,35.9327652 20.7952336,34.7704812 20.7952336,33.343053 L20.7952336,3.24830365 C20.7952336,1.82087541 19.6329496,0.658591381 18.2055214,0.658591381 Z M2.15304522,5.92030691 L19.4487235,5.92030691 L19.4487235,27.2119141 L2.15304522,27.2119141 L2.15304522,5.92030691 Z M3.5395821,2.15304522 L18.0616101,2.15304522 C18.8266556,2.15304522 19.4487235,2.77511312 19.4487235,3.5395821 L19.4487235,4.45913566 L2.15304522,4.45913566 L2.15304522,3.5395821 C2.15304522,2.77511312 2.77511312,2.15304522 3.5395821,2.15304522 Z M18.0621867,34.4383114 L3.5395821,34.4383114 C2.77511312,34.4383114 2.15304522,33.8162435 2.15304522,33.0517745 L2.15304522,28.6730853 L19.4487235,28.6730853 L19.4487235,33.0517745 C19.4487235,33.8162435 18.8266556,34.4383114 18.0621867,34.4383114 Z" id="Shape" fill="#757575"></path>
                    <path d="M10.8008844,29.2496079 C9.5290755,29.2496079 8.49479394,30.2838895 8.49479394,31.5556984 C8.49479394,32.8275072 9.5290755,33.8617888 10.8008844,33.8617888 C12.0726933,33.8617888 13.1069748,32.8275072 13.1069748,31.5556984 C13.1069748,30.2838895 12.0726933,29.2496079 10.8008844,29.2496079 Z M10.8008844,32.7087436 C10.1649799,32.7087436 9.64783916,32.1916028 9.64783916,31.5556984 C9.64783916,30.9197939 10.1649799,30.4026531 10.8008844,30.4026531 C11.4367888,30.4026531 11.9539296,30.9197939 11.9539296,31.5556984 C11.9539296,32.1916028 11.4367888,32.7087436 10.8008844,32.7087436 Z" id="Shape" fill="#676767"></path>
                    <path d="M8.49479394,3.88261305 L10.8008844,3.88261305 C11.1197014,3.88261305 11.377407,3.62490745 11.377407,3.30609044 C11.377407,2.98727344 11.1197014,2.72956783 10.8008844,2.72956783 L8.49479394,2.72956783 C8.17597693,2.72956783 7.91827133,2.98727344 7.91827133,3.30609044 C7.91827133,3.62490745 8.17597693,3.88261305 8.49479394,3.88261305 Z" id="Path" fill="#757575"></path>
                    <path d="M12.5304522,3.88261305 L13.1069748,3.88261305 C13.4257918,3.88261305 13.6834974,3.62490745 13.6834974,3.30609044 C13.6834974,2.98727344 13.4257918,2.72956783 13.1069748,2.72956783 L12.5304522,2.72956783 C12.2116352,2.72956783 11.9539296,2.98727344 11.9539296,3.30609044 C11.9539296,3.62490745 12.2116352,3.88261305 12.5304522,3.88261305 Z" id="Path" fill="#757575"></path>
                </g>
            </g>
        </g>
    </g>
</svg>