<?xml version="1.0" encoding="UTF-8"?>
<svg width="29px" height="29px" viewBox="0 0 29 29" version="1.1" xmlns="http://www.w3.org/2000/svg" xmlns:xlink="http://www.w3.org/1999/xlink">
    <!-- Generator: Sketch 53 (72520) - https://sketchapp.com -->
    <title>icon-understand</title>
    <desc>Created with Sketch.</desc>
    <g id="Page-1" stroke="none" stroke-width="1" fill="none" fill-rule="evenodd" opacity="0.6">
        <g id="01" transform="translate(-925.000000, -3892.000000)" fill="#000000" fill-rule="nonzero">
            <g id="icon-understand" transform="translate(925.000000, 3892.000000)">
                <path d="M25.0330189,15.2113208 L13.7491614,15.2113208 L13.7491614,3.92746331 C13.7491614,3.47148847 13.3843816,3.1067086 12.9284067,3.1067086 C5.80303983,3.1067086 0.00303983229,8.9067086 0.00303983229,16.0320755 C0.00303983229,23.1574423 5.80303983,28.9574423 12.9284067,28.9574423 C20.0537736,28.9574423 25.8537736,23.1574423 25.8537736,16.0320755 C25.8537736,15.5821803 25.482914,15.2113208 25.0330189,15.2113208 Z M12.9284067,27.3159329 C6.70890985,27.3159329 1.64454927,22.2515723 1.64454927,16.0320755 C1.64454927,10.0861635 6.26509434,5.19811321 12.107652,4.77861635 L12.107652,16.0320755 C12.107652,16.4880503 12.4724319,16.8528302 12.9284067,16.8528302 L24.1818658,16.8528302 C23.762369,22.6953878 18.8743187,27.3159329 12.9284067,27.3159329 Z" id="Shape"></path>
                <path d="M28.9544025,12.8828092 C28.9422432,9.74570231 27.7931866,6.72410901 25.720021,4.37127883 C23.2638365,1.59287212 19.737631,0 16.0290356,0 C15.5730608,0 15.2082809,0.364779874 15.2082809,0.820754717 L15.2082809,12.9253669 C15.2082809,13.3813417 15.5730608,13.7461216 16.0290356,13.7461216 L28.1336478,13.7461216 L28.1336478,13.7461216 C28.5896226,13.7461216 28.9544025,13.3813417 28.9544025,12.9253669 C28.9544025,12.9132075 28.9544025,12.9010482 28.9544025,12.8828092 Z M16.8497904,12.1106918 L16.8497904,1.67798742 C19.7801887,1.89077568 22.5281971,3.24654088 24.4858491,5.46561845 C26.1273585,7.31991614 27.1001048,9.65450734 27.2824948,12.1106918 L16.8497904,12.1106918 Z" id="Shape"></path>
            </g>
        </g>
    </g>
</svg>