<?xml version="1.0" encoding="UTF-8"?>
<svg width="29px" height="34px" viewBox="0 0 29 34" version="1.1" xmlns="http://www.w3.org/2000/svg" xmlns:xlink="http://www.w3.org/1999/xlink">
    <!-- Generator: Sketch 53 (72520) - https://sketchapp.com -->
    <title>icon-easy</title>
    <desc>Created with Sketch.</desc>
    <g id="Page-1" stroke="none" stroke-width="1" fill="none" fill-rule="evenodd" opacity="0.6">
        <g id="01" transform="translate(-106.000000, -4022.000000)" fill="#000000" fill-rule="nonzero">
            <g id="icon-easy" transform="translate(106.000000, 4022.000000)">
                <path d="M17.7034884,29.0151857 C16.0196371,30.6991954 13.7809973,31.6264305 11.3994623,31.6264305 C6.48462541,31.6264305 2.48593413,27.6277392 2.48593413,22.712427 C2.48593413,20.3307336 3.41301077,18.0916185 5.09654518,16.4079257 C5.56055876,15.9439121 5.56040034,15.1915733 5.09638676,14.7275597 C4.63237319,14.2633877 3.88003434,14.2635461 3.41602076,14.7277181 C1.28383955,16.8602162 0.109626971,19.6957843 0.109626971,22.7122686 C0.109626971,28.9377181 5.17417122,34.0025792 11.3994623,34.0025792 C14.4156298,34.0025792 17.2511979,32.8280498 19.3838544,30.6950765 C19.847868,30.2310629 19.8477095,29.4787241 19.383696,29.0148689 C18.9196824,28.5513306 18.1673435,28.5511722 17.7034884,29.0151857 Z" id="Path"></path>
                <path d="M27.6355018,26.4096441 L24.2556009,26.4096441 L22.1630248,20.6036921 C21.9931981,20.1323911 21.5461355,19.8184017 21.0452099,19.8184017 L12.2351303,19.8184017 L12.2351303,14.4834337 L20.4172312,14.4834337 C21.0734088,14.4834337 21.6053847,13.9516162 21.6053847,13.2952802 C21.6053847,12.6389441 21.0734088,12.1071266 20.4172312,12.1071266 L12.2351303,12.1071266 L12.2351303,8.44048463 C12.2351303,7.78414859 11.7031544,7.25233104 11.0469767,7.25233104 C10.3907991,7.25233104 9.85882316,7.78414859 9.85882316,8.44048463 L9.85882316,21.0063969 C9.85882316,21.6627329 10.3907991,22.1945505 11.0469767,22.1945505 L20.210334,22.1945505 L22.3029101,28.0005026 C22.4727369,28.4718035 22.9197994,28.7857929 23.420725,28.7857929 L27.6353434,28.7857929 C28.291521,28.7857929 28.823497,28.2539753 28.823497,27.5976393 C28.823497,26.9413033 28.2918378,26.4096441 27.6355018,26.4096441 Z" id="Path"></path>
                <path d="M11.0918097,5.77252536 C12.685995,5.77252536 13.9783893,4.48076479 13.9783893,2.88547058 C13.9782308,1.29286952 12.685995,0 11.0918097,0 C9.49762447,0 8.20554706,1.29286952 8.20554706,2.885629 C8.20554706,4.48076479 9.49762447,5.77252536 11.0918097,5.77252536 Z" id="Path"></path>
            </g>
        </g>
    </g>
</svg>