<?xml version="1.0" encoding="UTF-8"?>
<svg width="28px" height="28px" viewBox="0 0 28 28" version="1.1" xmlns="http://www.w3.org/2000/svg" xmlns:xlink="http://www.w3.org/1999/xlink">
    <!-- Generator: Sketch 53 (72520) - https://sketchapp.com -->
    <title>icon-clock</title>
    <desc>Created with Sketch.</desc>
    <g id="Page-1" stroke="none" stroke-width="1" fill="none" fill-rule="evenodd" opacity="0.6">
        <g id="01" transform="translate(-522.000000, -4022.000000)">
            <g id="icon-clock" transform="translate(522.000000, 4022.000000)">
                <g id="clock-circular-outline" fill="#000000" fill-rule="nonzero">
                    <path d="M13.88,0 C6.22657143,0 0,6.22657143 0,13.88 C0,21.5334286 6.22657143,27.76 13.88,27.76 C21.5334286,27.76 27.76,21.5334286 27.76,13.88 C27.76,6.22657143 21.5334286,0 13.88,0 Z M13.88,26.1525528 C7.11297543,26.1525528 1.60712631,20.6473455 1.60712631,13.88 C1.60712631,7.11265452 7.11297543,1.60744722 13.88,1.60744722 C20.6470246,1.60744722 26.1528737,7.11265452 26.1528737,13.88 C26.1528737,20.6473455 20.6470246,26.1525528 13.88,26.1525528 Z" id="Shape"></path>
                </g>
                <polyline id="Line-4" stroke="#000000" stroke-width="1.5" stroke-linecap="round" stroke-linejoin="round" points="14.5443115 5.71228027 14.5443115 14.5317383 22.2376709 14.5317383"></polyline>
            </g>
        </g>
    </g>
</svg>