<?xml version="1.0" encoding="UTF-8"?>
<svg width="28px" height="27px" viewBox="0 0 28 27" version="1.1" xmlns="http://www.w3.org/2000/svg" xmlns:xlink="http://www.w3.org/1999/xlink">
    <!-- Generator: Sketch 53 (72520) - https://sketchapp.com -->
    <title>icon-piggy</title>
    <desc>Created with Sketch.</desc>
    <g id="Page-1" stroke="none" stroke-width="1" fill="none" fill-rule="evenodd" opacity="0.6">
        <g id="01" transform="translate(-925.000000, -4022.000000)" fill="#000000" fill-rule="nonzero">
            <g id="icon-piggy" transform="translate(925.000000, 4022.000000)">
                <path d="M25.9107759,9.47925976 L25.5035001,9.47925976 C24.8266191,7.74116698 23.6908357,6.16369003 22.1764578,4.88449963 C21.9642154,4.11583813 22.1248313,3.28407756 22.6697778,2.42363559 C22.9738007,1.9360518 22.9910095,1.35095126 22.7156681,0.851894916 C22.4403267,0.358574852 21.9240615,0.0545520211 21.3676423,0.0545520211 C21.3045433,0.0545520211 21.2357079,0.0602883009 21.1726088,0.0660245807 C19.0788667,0.324157173 17.8054126,1.25917078 17.0424873,2.14829416 C16.1246826,1.86148016 14.9602178,1.77543597 14.7422391,1.75822713 C14.2030288,1.70086433 13.652346,1.66644665 13.1073994,1.66644665 C9.62547754,1.66644665 6.35006176,2.85959285 3.87772516,5.01643407 C1.37670716,7.20195668 0,10.1217231 0,13.2307868 C0,14.0338659 0.0917804771,14.8369451 0.281077711,15.6228155 C0.286813991,15.6400243 0.286813991,15.6572331 0.292550271,15.6687057 L0.298286551,15.6973871 C0.493320064,16.4889937 0.785870335,17.2633915 1.15872852,18.0033716 C1.78398302,19.3456611 2.5296994,20.4699719 3.36719625,21.3361502 C4.52592478,22.5292964 4.72669457,24.0436742 4.75537597,24.6517199 L4.75537597,24.9500064 C4.75537597,24.961479 4.75537597,24.9786878 4.75537597,24.9901604 C4.75537597,25.0532595 4.76111225,25.1106223 4.77258481,25.1679851 C4.88157413,25.8792838 5.49535607,26.4242304 6.22959988,26.4242304 L10.5031283,26.4242304 C11.3176801,26.4242304 11.9773523,25.7645582 11.9773523,24.9500064 L11.9773523,24.7549729 C12.5853979,24.8008632 13.1991799,24.8065994 13.8129618,24.777918 L13.8129618,24.9500064 C13.8129618,25.7645582 14.472634,26.4242304 15.2871857,26.4242304 L19.5607142,26.4242304 C20.3752659,26.4242304 21.0349381,25.7645582 21.0349381,24.9500064 L21.0349381,23.9060035 C21.0406744,23.6650798 21.1324549,22.5235601 22.2166117,21.5369199 C22.2682383,21.4910297 22.3256011,21.4451395 22.3772276,21.3992492 C22.3829639,21.393513 22.3829639,21.393513 22.3887001,21.3877767 C22.405909,21.3763041 22.4173815,21.3648316 22.4288541,21.3476227 C23.8571878,20.0684323 24.9356084,18.5081642 25.5608629,16.8044891 L25.8993034,16.8044891 C27.0408231,16.8044891 27.9701004,15.8752118 27.9701004,14.7336921 L27.9701004,11.5385842 C27.981573,10.4028008 27.0522956,9.47925976 25.9107759,9.47925976 Z M21.3676423,1.59761129 C21.361906,1.59761129 21.361906,1.59761129 21.3676423,1.59761129 C21.361906,1.59187501 21.361906,1.59187501 21.361906,1.59187501 C21.361906,1.59187501 21.361906,1.59187501 21.361906,1.59761129 L21.361906,1.59761129 L21.2643893,0.828949797 L21.3676423,1.59761129 Z M26.4327774,14.7394284 C26.4327774,15.0262424 26.1975899,15.2614298 25.9107759,15.2614298 L25.0159163,15.2614298 C24.6774758,15.2614298 24.373453,15.4851447 24.2759362,15.8063764 C23.7711436,17.458425 22.7672946,18.9842754 21.3848512,20.2175756 C21.3791149,20.2233119 21.3791149,20.2233119 21.3733786,20.2290481 L21.3676423,20.2347844 C21.3160158,20.2806747 21.2643893,20.3265649 21.2127628,20.3724551 C21.2070265,20.3781914 21.2012902,20.3839277 21.1955539,20.389664 C19.6639672,21.7778437 19.5090877,23.4126834 19.4976151,23.8830584 C19.4976151,23.8887947 19.4976151,23.894531 19.4976151,23.9002672 L19.4976151,24.8811711 L15.3674936,24.8811711 L15.3674936,23.9461575 C15.3674936,23.7281788 15.2757132,23.5159365 15.109361,23.3725295 C14.9487452,23.2233862 14.7250303,23.1545509 14.5127879,23.177496 C14.042413,23.2291225 13.5720381,23.2520676 13.1073994,23.2520676 C12.50509,23.2520676 11.9027806,23.2119137 11.3119438,23.1316057 C11.0882289,23.1029243 10.864514,23.1717597 10.6981619,23.3151667 C10.5318097,23.46431 10.434293,23.6765523 10.434293,23.9002672 L10.434293,24.8811711 L6.3099078,24.8811711 L6.3099078,24.634511 C6.3099078,24.6230385 6.3099078,24.6115659 6.3099078,24.6000934 C6.27549012,23.8256956 6.02883009,21.8466791 4.48577082,20.2577295 C3.76299956,19.5120132 3.11479994,18.5311093 2.56411708,17.3379631 C2.5583808,17.3264906 2.55264452,17.3207543 2.55264452,17.3092817 C2.22567657,16.6725547 1.97328026,16.0071462 1.80692814,15.3245289 C1.80692814,15.3187926 1.80119186,15.3130563 1.80119186,15.3073201 C1.80119186,15.3015838 1.80119186,15.3015838 1.80119186,15.2958475 C1.64057603,14.6189665 1.55453183,13.9248766 1.55453183,13.236523 C1.55453183,7.71248558 6.74012879,3.22097848 13.1131357,3.22097848 C13.6064557,3.22097848 14.1055121,3.24965988 14.5930959,3.3012864 C14.6045684,3.3012864 14.616041,3.3012864 14.6275135,3.30702268 C15.2699769,3.34717664 16.4631231,3.51352875 16.9392343,3.77166134 C17.2891474,3.96095858 17.7251046,3.85196926 17.9488196,3.52500131 C18.4478759,2.78502122 19.4459886,1.8500076 21.361906,1.61482013 C20.5875083,2.85385657 20.3580571,4.13878325 20.6964976,5.33766574 C20.7022339,5.56138065 20.8112232,5.773623 20.9833116,5.91703 C22.5321071,7.167539 23.656418,8.75648851 24.230046,10.5060539 C24.333299,10.8215492 24.6315855,11.0395279 24.9642898,11.0395279 C24.9700261,11.0395279 24.9700261,11.0395279 24.9757623,11.0395279 L25.9165122,11.0395279 C26.2033262,11.0395279 26.4385137,11.2747153 26.4385137,11.5615293 L26.4385137,14.7394284 L26.4327774,14.7394284 Z" id="Shape"></path>
            </g>
        </g>
    </g>
</svg>